<svg version="1.1" xmlns="http://www.w3.org/2000/svg" width="512px" height="512px" transform="rotate(0) scale(1, 1)">
<path d="M0 0 C0.8925187 -0.00367669 1.7850374 -0.00735338 2.70460212 -0.01114148 C5.68929427 -0.02213726 8.67395156 -0.02601506 11.65866089 -0.02983093 C13.80081288 -0.03609831 15.94296379 -0.04274535 18.08511353 -0.04974365 C25.11076099 -0.07074058 32.13640859 -0.08113678 39.16207886 -0.09111023 C41.58087043 -0.09515836 43.99966188 -0.0992753 46.41845322 -0.10346031 C57.77418912 -0.1224964 69.12991856 -0.13673501 80.48566735 -0.14507228 C93.60294075 -0.15486199 106.72004619 -0.18123331 119.83726037 -0.22157317 C129.97409179 -0.25168111 140.11087488 -0.26653579 150.24775016 -0.26985329 C156.3042515 -0.27220837 162.36057305 -0.28122947 168.41702652 -0.30631447 C174.10846622 -0.32950931 179.79960661 -0.33386312 185.49108124 -0.32355309 C187.58251564 -0.32305564 189.67396438 -0.32943705 191.76535416 -0.34310913 C194.61476628 -0.36069883 197.46308879 -0.35378608 200.3125 -0.34057617 C201.56122397 -0.35703004 201.56122397 -0.35703004 202.83517468 -0.37381631 C206.47862494 -0.33287571 208.57576771 -0.20094776 211.51156425 2.05265522 C215.15879713 7.08604542 214.21341133 12.49654346 214.21676636 18.52217102 C214.22901245 19.67201477 214.24125854 20.82185852 214.25387573 22.00654602 C214.25580933 23.11256165 214.25774292 24.21857727 214.25973511 25.35810852 C214.26384399 26.37179504 214.26795288 27.38548157 214.27218628 28.42988586 C214.0214044 31.23511428 213.58087226 32.8150799 212.02926636 35.14717102 C208.2369531 37.67537986 205.22106739 37.42745645 200.82826233 37.40545654 C199.98211453 37.40913225 199.13596674 37.41280795 198.2641781 37.41659504 C195.41782851 37.42660566 192.57167312 37.42241802 189.72531128 37.41841125 C187.68849479 37.42279684 185.65168009 37.42809839 183.61486816 37.43424988 C179.22124827 37.44576896 174.82767673 37.45121074 170.43404198 37.45213127 C163.47788985 37.45407035 156.52183758 37.47211759 149.5657196 37.4928894 C132.27722921 37.54211306 114.98871148 37.5729056 97.70016479 37.5941925 C84.28418987 37.61074194 70.8683 37.63365256 57.45238191 37.67721325 C50.54764703 37.69892063 43.64307398 37.7070537 36.73830736 37.70482051 C32.4240895 37.70649628 28.10997567 37.72060117 23.79579544 37.73803329 C21.80694783 37.74359756 19.81807832 37.74415086 17.82922935 37.73909569 C-0.01412478 37.69852738 -15.00905718 38.73810629 -28.78323364 51.45967102 C-42.27350436 66.04986789 -41.41178752 83.45800658 -41.35891724 102.10639954 C-41.36298766 104.52231584 -41.36833217 106.93823029 -41.37484741 109.35414124 C-41.38705894 115.20852992 -41.38533814 121.06278869 -41.37660949 126.9171812 C-41.36980667 131.67888661 -41.36892739 136.44055972 -41.37218094 141.2022686 C-41.37264064 141.88255678 -41.37310034 142.56284497 -41.37357397 143.26374794 C-41.37453324 144.64615823 -41.37550588 146.02856851 -41.37649174 147.41097879 C-41.38502528 160.34237848 -41.37524325 173.27371414 -41.35909064 186.20510333 C-41.34568627 197.27884216 -41.34802047 208.35248662 -41.36184692 219.42622375 C-41.37793361 232.31605945 -41.38420468 245.20583918 -41.37501013 258.09568352 C-41.37405458 259.47241874 -41.37311147 260.84915397 -41.37218094 262.22588921 C-41.37171811 262.90310106 -41.37125529 263.58031291 -41.37077843 264.27804633 C-41.36819802 269.02949992 -41.37253891 273.78091775 -41.3796196 278.5323658 C-41.38831248 284.93715481 -41.38222479 291.34176633 -41.36493683 297.74653625 C-41.36098457 300.09099979 -41.3620843 302.43547837 -41.36872482 304.77993584 C-41.41505792 322.80563925 -40.88652608 338.27339226 -28.04495239 352.22920227 C-18.20408234 361.32876384 -7.32059718 364.61498169 5.82511902 364.5415802 C7.38613564 364.55071686 7.38613564 364.55071686 8.97868794 364.56003809 C12.44138 364.57659357 15.90370132 364.57190284 19.36642456 364.5670929 C21.85909403 364.57443754 24.3517601 364.58302492 26.84442139 364.59275818 C32.8980798 364.6126404 38.95159425 364.61835709 45.00527254 364.61657029 C49.92961006 364.6152591 54.85391782 364.61908498 59.77824974 364.62649536 C61.20044666 364.62859471 62.62264359 364.63069231 64.04484051 364.63278818 C64.75286288 364.63383171 65.46088525 364.63487524 66.19036283 364.63595039 C79.56051201 364.65482439 92.93060624 364.65381131 106.30076321 364.64698106 C118.5099332 364.64140778 130.71889321 364.66222686 142.92801414 364.69534153 C155.48849937 364.72914265 168.04888419 364.74423888 180.60941571 364.7396245 C187.65151081 364.73738627 194.69341187 364.74252772 201.73546791 364.76751709 C208.36023226 364.79082705 214.98463415 364.78786972 221.60943222 364.76758957 C224.0341075 364.76418722 226.45881238 364.7692349 228.88344765 364.78357315 C246.94090078 364.88294896 260.20270841 363.5948461 273.73629761 350.49482727 C282.25468861 341.32946986 285.33472668 330.37173799 285.30050659 318.17622375 C285.30573334 317.1997287 285.31096008 316.22323364 285.31634521 315.21714783 C285.32655057 313.10666947 285.33235955 310.99616619 285.33422661 308.88566399 C285.3379007 305.54384563 285.35465471 302.20232123 285.37498474 298.86056519 C285.43030732 289.36281292 285.46111431 279.8650184 285.48556519 270.36714172 C285.50144237 264.5494036 285.53165795 258.73187638 285.57032967 252.91424751 C285.58197251 250.70031536 285.58790995 248.4863455 285.58801079 246.27238274 C285.58820292 243.17760553 285.60647393 240.0834105 285.62863159 236.98872375 C285.62405441 236.07686813 285.61947723 235.16501251 285.61476135 234.2255249 C285.67282476 229.12224844 286.18386163 225.56586965 289.02926636 221.14717102 C293.5499984 217.82582907 299.61423406 218.81882575 304.96676636 218.83467102 C306.5938855 218.8105011 306.5938855 218.8105011 308.25387573 218.7858429 C309.82685425 218.7848761 309.82685425 218.7848761 311.43161011 218.78388977 C312.86234863 218.77941833 312.86234863 218.77941833 314.32199097 218.77485657 C317.61672 219.2279598 319.41721786 220.09234459 322.02926636 222.14717102 C324.60404719 226.77134412 324.31156055 231.43789695 324.28805542 236.58052063 C324.29331238 237.99628891 324.29331238 237.99628891 324.29867554 239.44065857 C324.30747442 242.56035226 324.30164586 245.67981876 324.29489136 248.79951477 C324.29623955 250.97843468 324.29818136 253.15735431 324.3006897 255.33627319 C324.30363931 259.90844073 324.29935222 264.48053015 324.29000854 269.0526886 C324.27867504 274.87932359 324.28513564 280.70577307 324.29715347 286.53240108 C324.3044286 291.03746908 324.30205732 295.54249416 324.29689789 300.04756355 C324.29557379 302.19350265 324.29716508 304.33944579 324.30185699 306.48538017 C324.35101591 335.31614817 319.65433348 358.73147632 299.02926636 380.14717102 C282.80493955 396.07855859 261.64555171 403.49724566 239.08865356 403.40786743 C237.52234668 403.41360575 237.52234668 403.41360575 235.92439723 403.41946 C232.45572037 403.42970717 228.98721162 403.42581364 225.51852417 403.42182922 C223.01910246 403.42618032 220.51968208 403.43136479 218.02026367 403.43731689 C211.95339264 403.44929103 205.88658668 403.4518633 199.81970981 403.44951663 C194.8835018 403.44772787 189.94730718 403.44949503 185.01110077 403.45374107 C184.30642952 403.45433626 183.60175828 403.45493145 182.87573336 403.45554468 C181.4438042 403.45675653 180.01187505 403.45797067 178.57994589 403.45918705 C165.17301872 403.4700452 151.76611675 403.46790849 138.35918817 403.46180221 C126.12238805 403.45663655 113.88566762 403.46788228 101.64888325 403.48690043 C89.05446686 403.50632281 76.46008807 403.51452701 63.86565661 403.51077718 C56.80679625 403.50887154 49.74800365 403.51128999 42.68915558 403.52549171 C36.0472039 403.53872048 29.40538456 403.53608599 22.76342392 403.52308083 C20.33475311 403.52072456 17.90607098 403.52341539 15.47741318 403.53170395 C-9.06356424 403.60937598 -29.15295707 400.37032342 -48.97073364 385.14717102 C-49.64620239 384.64443665 -50.32167114 384.14170227 -51.01760864 383.62373352 C-65.96238444 371.7638885 -76.50238322 351.99531656 -78.97073364 333.14717102 C-79.11906849 329.60168668 -79.11855959 326.05906124 -79.11790466 322.510849 C-79.12158135 321.43895368 -79.12525804 320.36705836 -79.12904614 319.26268137 C-79.14006049 315.67029935 -79.14392306 312.07794628 -79.1477356 308.48554993 C-79.15400205 305.90967213 -79.16064901 303.33379523 -79.16764832 300.75791931 C-79.18737383 293.02724238 -79.19747482 285.29656423 -79.20637611 277.56586844 C-79.21076619 273.91886947 -79.21613119 270.27187195 -79.22136497 266.62487411 C-79.23837478 254.48971928 -79.25286618 242.35456533 -79.26011372 230.21940041 C-79.26202339 227.07309086 -79.26394375 223.92678132 -79.26589966 220.7804718 C-79.2663834 219.99853948 -79.26686714 219.21660715 -79.26736554 218.41097991 C-79.27565553 205.76066619 -79.30097608 193.11044734 -79.33348034 180.46017499 C-79.36663168 167.45120315 -79.38456982 154.44227937 -79.38775796 141.43326509 C-79.3899158 134.13784484 -79.39855725 126.84256287 -79.42421913 119.54718399 C-79.44833019 112.67708826 -79.45170138 105.80724411 -79.44145775 98.93711472 C-79.44096415 96.42500736 -79.44723209 93.91288747 -79.46101379 91.40081787 C-79.60164262 64.23232497 -74.39114213 43.42155966 -55.22073364 22.95967102 C-40.20110491 8.59827303 -20.80348311 -0.00463199 0 0 Z " fill="#53a245" transform="translate(78.97073364257813,72.85282897949219)"/>
<path d="M0 0 C1.29675659 -0.0071553 2.59351318 -0.01431061 3.92956543 -0.02168274 C5.36997962 -0.024523 6.81039407 -0.02723473 8.25080872 -0.02983093 C9.76534684 -0.03609638 11.27988343 -0.04274325 12.79441833 -0.04974365 C17.77181428 -0.07077926 22.74921051 -0.08114652 27.72663879 -0.09111023 C29.44109424 -0.09515817 31.15554953 -0.0992751 32.87000465 -0.10346031 C40.92603388 -0.12251198 48.98205395 -0.13674228 57.03810138 -0.14507228 C66.33159213 -0.15484083 75.62484446 -0.18115038 84.91825122 -0.22157317 C92.10479119 -0.25175696 99.29126292 -0.26654336 106.47786504 -0.26985329 C110.76840341 -0.27220148 115.05868707 -0.28113144 119.34915733 -0.30631447 C123.38838377 -0.32963952 127.4271886 -0.33381079 131.466465 -0.32355309 C132.94506167 -0.32305866 134.4236794 -0.32935148 135.90221214 -0.34310913 C151.9909776 -0.484379 151.9909776 -0.484379 158.35104656 5.62995434 C162.35971978 10.16902779 162.93404199 13.57618129 162.95584106 19.4591217 C162.95951775 20.10194729 162.96319444 20.74477288 162.96698254 21.40707803 C162.97801117 23.56491658 162.98186181 25.72270695 162.985672 27.88056946 C162.99193728 29.42628634 162.99858413 30.97200172 163.00558472 32.51771545 C163.02661997 37.59731498 163.03698663 42.6769148 163.04695129 47.75654602 C163.05099906 49.50569423 163.05511598 51.25484229 163.05930138 53.00399017 C163.0783519 61.2218 163.0925832 69.43960084 163.10091335 77.6574285 C163.11068553 87.14109874 163.13700509 96.62453555 163.17741424 106.10812354 C163.20758161 113.43986959 163.22238281 120.77154874 163.22569436 128.10335565 C163.22804416 132.4816093 163.23699535 136.85961356 163.26215553 141.2378006 C163.28545222 145.35827835 163.28966321 149.47834276 163.27939415 153.59886932 C163.27889906 155.10852433 163.28521161 156.61819979 163.2989502 158.12779236 C163.42068318 172.3004016 163.42068318 172.3004016 158.80867004 178.14717102 C153.63052434 183.05977079 149.1389509 184.3487924 142.18757629 184.51045227 C136.88549605 183.70077499 132.91558192 180.64890359 129.06892395 177.08882141 C127.7747757 175.89109604 127.7747757 175.89109604 126.45448303 174.66917419 C122.11922414 170.5367821 117.86694203 166.32823249 113.64460754 162.08076477 C112.72652313 161.16126541 111.80843872 160.24176605 110.86253357 159.29440308 C108.45691967 156.88502535 106.05432742 154.47265759 103.65242004 152.05958557 C101.18684242 149.58365957 98.71832478 147.11066832 96.25007629 144.6374054 C91.43344416 139.81014458 86.62000784 134.97970859 81.80867004 130.14717102 C76.68919891 134.43216136 71.8981564 138.9190569 67.19154358 143.65077209 C66.45672343 144.38544338 65.72190328 145.12011467 64.96481586 145.87704873 C62.51748175 148.3250741 60.0737348 150.7766485 57.62995911 153.22822571 C55.87049249 154.98961255 54.11079727 156.75077107 52.35089111 158.51171875 C48.56921983 162.29654569 44.78904977 166.08286241 41.01018524 169.87049103 C35.54390589 175.34935478 30.07436273 180.82495112 24.60393605 186.29967359 C15.72364293 195.18702325 6.84522132 204.07623984 -2.03166199 212.96699524 C-2.56223659 213.49839765 -3.09281119 214.02980007 -3.63946381 214.57730559 C-7.40680137 218.3505453 -11.17407227 222.12385157 -14.94132996 225.89717102 C-19.2516659 230.21443917 -23.56203512 234.53167409 -27.8724823 238.84883118 C-28.40361923 239.38079624 -28.93475617 239.9127613 -29.48198816 240.46084651 C-38.33183939 249.32437404 -47.18364718 258.1859451 -56.03685784 267.04611707 C-61.49557064 272.5093132 -66.95249613 277.97428312 -72.40713891 283.44154295 C-76.58083186 287.62464172 -80.75704595 291.80521699 -84.93420219 295.98485756 C-86.64959289 297.70212617 -88.36411602 299.42026187 -90.07772255 301.13931084 C-92.41024118 303.47900629 -94.74579007 305.81563387 -97.08213806 308.15150452 C-97.76510444 308.83806586 -98.44807083 309.5246272 -99.15173316 310.23199344 C-99.77691722 310.85580315 -100.40210128 311.47961286 -101.04623032 312.1223259 C-101.58505616 312.66207353 -102.123882 313.20182117 -102.6790359 313.7579248 C-105.97014173 316.78124975 -108.54790078 317.76662026 -113.0272522 317.65718079 C-115.73874746 317.01816074 -116.96689917 315.93541976 -119.0040741 314.04951477 C-119.69840546 313.41263733 -120.39273682 312.77575989 -121.10810852 312.11958313 C-121.79557159 311.46868713 -122.48303467 310.81779114 -123.19132996 310.14717102 C-123.80378571 309.57297424 -124.41624146 308.99877747 -125.04725647 308.40718079 C-128.93566042 304.72033887 -132.74602125 300.95252079 -136.55729675 297.18623352 C-137.9446983 295.8205791 -139.33833747 294.46123437 -140.73796082 293.10810852 C-142.77745456 291.13549513 -144.79657803 289.14391042 -146.81242371 287.14717102 C-147.43837936 286.54904602 -148.06433502 285.95092102 -148.70925903 285.33467102 C-151.5659989 282.46414015 -153.05689019 280.55680513 -154.3400116 276.64717102 C-154.00530652 268.76813652 -148.06669874 263.5956031 -142.76292419 258.35800171 C-142.01221641 257.60473065 -141.26150863 256.8514596 -140.48805213 256.07536215 C-137.97857015 253.56095104 -135.45853953 251.05739115 -132.93840027 248.55366516 C-131.13423308 246.75034443 -129.3307267 244.94636236 -127.52783203 243.14176941 C-123.64884732 239.26210223 -119.76532377 235.38707078 -115.87755585 231.51620674 C-110.25657629 225.91965109 -104.64393955 220.31478919 -99.03327748 214.70789235 C-89.92922531 205.61039935 -80.81849962 196.5196203 -71.70353699 187.43305969 C-62.8513819 178.60845902 -54.00239611 169.78070005 -45.15763855 160.94868469 C-44.61206925 160.40390357 -44.06649996 159.85912244 -43.50439826 159.29783279 C-40.76734413 156.56469389 -38.03035202 153.83149289 -35.29339075 151.098261 C-12.60231131 128.43826081 10.09961428 105.78915644 32.80867004 83.14717102 C31.14413067 79.61274681 29.23811342 77.34982157 26.43830872 74.59736633 C25.53364365 73.7025354 24.62897858 72.80770447 23.69689941 71.88575745 C23.21316046 71.41187843 22.7294215 70.93799942 22.23102379 70.44976044 C20.70791796 68.95694753 19.19169729 67.45744487 17.67715454 65.95594788 C13.37068206 61.68910462 9.05172644 57.43497967 4.72932434 53.1842804 C2.08163072 50.57957761 -0.5584916 47.96738401 -3.19444847 45.35080719 C-4.1949466 44.36080059 -5.19834335 43.37371365 -6.20479774 42.38976288 C-19.23426258 29.6510175 -19.23426258 29.6510175 -20.85539246 22.02217102 C-20.76238506 15.17682645 -19.94013749 10.27934583 -15.19132996 5.14717102 C-10.06576705 1.14923196 -6.41087296 0.02424775 0 0 Z " fill="#53a245" transform="translate(349.1913299560547,35.85282897949219)"/>
</svg>