<svg xmlns="http://www.w3.org/2000/svg" viewBox="0 0 11.792 13.158"><g transform="matrix(.26458 0 0 .26458 -5.216 -1.094)"><linearGradient id="a" x1="-607.877" x2="-590.073" y1="117.516" y2="166.555" gradientTransform="translate(647.445 -119.255)" gradientUnits="userSpaceOnUse"><stop offset="0" stop-color="#222221"/><stop offset=".079" stop-color="#5E5F5F"/><stop offset=".213" stop-color="#BFBFC0"/><stop offset=".242" stop-color="#FFF"/><stop offset=".264" stop-color="#FFF"/><stop offset=".36" stop-color="#E9E9E9"/><stop offset=".556" stop-color="#B1B1B1"/><stop offset=".861" stop-color="#5E5E5E"/><stop offset="1" stop-color="#3D3D3D"/></linearGradient><path fill="url(#a)" d="M64.18 8.964s.098-1.199-.904-1.971c-1.088-.852-3.283-.987-3.283-.987s-7.01-.673-16.84-1.267c-8.628-.514-16.914-.609-17.195-.605-2.64.024-4.735 1.208-4.735 1.208s.003.004.005.004c.997-.445 2.362-.468 2.362-.468s5.125.087 14.961.69c9.83.603 16.841 1.291 16.841 1.291s2.189.139 3.281 1.002c1.006.792.904 2.012.904 2.012s.105 8.776.105 19.625c0 10.848-.941 22.038-.941 22.038s.006 1.563-1.145 2.078c-.057.02-.113.045-.17.063.701-.182 1.799-.557 2.551-.85.762-.301 1.744-.791 2.164-1.006a.273.273 0 0 1 .057-.02c1.15-.506 1.143-2.031 1.143-2.031s.943-10.982.943-21.621c.002-10.637-.104-19.185-.104-19.185Z" style="fill:url(#a)"/><path fill="#fff" d="M23.589 4.878s5.126.087 14.962.69c9.83.603 16.839 1.291 16.839 1.291s2.191.139 3.283 1.002c1.004.792.904 2.012.904 2.012s.105 8.776.105 19.625c0 10.848-.941 22.038-.941 22.038s.006 1.563-1.145 2.078c-1.15.52-3.146.076-3.146.076s-8.525-1.441-16.266-2.99a359.567 359.567 0 0 1-15.02-3.381s-1.429-.51-2.083-1.344c-.809-1.041-.696-2.508-.696-2.508s-.269-7.477-.46-17.328c-.196-9.815-.211-18.245-.211-18.245s.024-1.616 1.138-2.344c.991-.644 2.737-.672 2.737-.672z"/><path fill="#4d4d4d" d="M22.634 9.487a.063.063 0 0 0 .029-.017c-.02.013-.029.015-.029.015zm33.247 3.295s-.053-.724-.576-1.225c-.494-.475-1.758-.598-1.758-.598s-9.109-.771-14.955-1.156c-5.839-.383-13.242-.952-13.242-.952s-.62-.058-1.182.033v-.002s-.005.004-.011.004a2.091 2.091 0 0 0-.465.13c-.351.13-.679.286-.878.382.605-.239 1.622-.15 1.622-.15s7.403.571 13.243.956c5.84.386 14.954 1.152 14.954 1.152s1.318.107 1.813.583c.51.484.521 1.245.521 1.245s-.057 7.093-.057 12.81c0 5.72-.373 22.22-.373 22.22s.074.832-.627 1.14c.148-.056.322-.118.447-.175.203-.094.432-.17.59-.287.568-.344.504-1.076.504-1.076s.373-16.5.373-22.223c-.001-5.719.057-12.811.057-12.811z"/><path fill="#464646" d="M23.628 7.151s8.144.631 14.567 1.054c6.428.423 16.45 1.268 16.45 1.268s1.449.117 1.994.638c.563.534.574 1.369.574 1.369s-.061 7.804-.061 14.09c0 6.294-.408 24.445-.408 24.445s.086.965-.754 1.279c-.829.316-1.99.238-1.99.238s-10.09-1.848-15.933-2.957C32.222 47.466 24.06 45.77 24.06 45.77s-1.093-.266-1.414-.791c-.319-.53-.445-1.322-.445-1.322s-.583-11.898-.646-18.666c-.065-6.765-.449-16.363-.449-16.363s0-.952.642-1.268c.645-.32 1.88-.209 1.88-.209Z"/><radialGradient id="b" cx="-1538.441" cy="-275.482" r="188.496" fx="-1538.441" fy="-275.482" gradientTransform="matrix(.3466 0 0 .2852 554.227 87.447)" gradientUnits="userSpaceOnUse"><stop offset="0" stop-color="#F3F3F3"/><stop offset=".006" stop-color="#F3F3F3"/><stop offset=".184" stop-color="#ECECEC"/><stop offset=".442" stop-color="#D9D9D9"/><stop offset=".747" stop-color="#B9B9B9"/><stop offset="1" stop-color="#9A9A9A"/></radialGradient><path fill="url(#b)" d="M22.678 8.101s8.144.631 14.567 1.054c6.427.423 16.45 1.267 16.45 1.267s1.449.117 1.992.639c.563.534.576 1.369.576 1.369s-.061 7.804-.061 14.09c0 6.293-.408 24.443-.408 24.443s.084.965-.754 1.28c-.832.315-1.992.237-1.992.237s-10.089-1.848-15.932-2.957c-5.845-1.109-14.007-2.803-14.007-2.803s-1.093-.266-1.414-.793c-.319-.531-.445-1.32-.445-1.32s-.583-11.9-.646-18.667c-.065-6.765-.449-16.364-.449-16.364s0-.952.642-1.267c.645-.319 1.881-.208 1.881-.208Z" style="fill:url(#b)"/><path fill="#464646" d="M52.084 36.555V23.558c0-10.396-8.178-10.921-8.178-10.921l-9.341-.731c-10.19-.297-9.65 8.973-9.65 8.973V32.69c0 10.65 9.309 11.844 9.309 11.844l11.043 2.146v-3.299l-11.925-2.48c-4.778-1.609-4.976-7.701-4.976-7.701V20.332c.549-5.038 4.891-5.329 4.891-5.329s5.652-.162 10.165.725c.066.013.133.028.199.043 4.395 1.052 4.492 7.498 4.492 7.498v12.438c-.297 2.189-3.232 1.322-3.232 1.322-1.846-.23-2.134-1.621-2.134-1.621V20.1l-6.396-.3c-4.949.048-5.134 3.876-5.134 3.876v8.655c.093 4.559 3.819 5.025 3.819 5.025 3.141.832 5.254-1.443 5.254-1.443.199 3.344 4.005 3.631 4.005 3.631l2.932.236c5.26.519 4.857-3.225 4.857-3.225zm-12.889-3.537c-.278 1.584-2.688 1.654-2.688 1.654-2.542-.186-2.211-2.18-2.211-2.18v-8.171c0-2.731 4.898-1.835 4.898-1.835v10.532z"/><linearGradient id="c" x1="-243.456" x2="-218.297" y1="423.025" y2="397.865" gradientTransform="matrix(1 0 0 -1 268.5 439.61)" gradientUnits="userSpaceOnUse"><stop offset="0" stop-color="#00DCFF"/><stop offset=".5" stop-color="#06C"/><stop offset="1" stop-color="#003883"/></linearGradient><path fill="url(#c)" d="M51.135 37.504V24.508c0-10.396-8.179-10.921-8.179-10.921l-9.34-.731c-10.19-.297-9.65 8.973-9.65 8.973v11.81c0 10.65 9.309 11.844 9.309 11.844l11.044 2.146V44.33l-11.925-2.48c-4.778-1.609-4.977-7.701-4.977-7.701V21.282c.549-5.038 4.891-5.329 4.891-5.329s5.652-.161 10.164.726c.067.013.134.028.199.042 4.396 1.052 4.492 7.498 4.492 7.498v12.439c-.295 2.189-3.232 1.32-3.232 1.32-1.844-.23-2.135-1.621-2.135-1.621V21.05l-6.394-.301c-4.948.048-5.134 3.876-5.134 3.876v8.656c.093 4.557 3.818 5.023 3.818 5.023 3.142.832 5.255-1.443 5.255-1.443.198 3.344 4.006 3.633 4.006 3.633l2.932.234c5.257.521 4.856-3.224 4.856-3.224zm-12.889-3.537c-.278 1.586-2.688 1.656-2.688 1.656-2.542-.186-2.212-2.18-2.212-2.18v-8.174c0-2.729 4.898-1.833 4.898-1.833v10.531z" style="fill:url(#c)"/></g></svg>