<?xml version="1.0" encoding="UTF-8"?>
<!-- Generator: https://ezgif.com/png-to-svg -->
<svg version="1.1" xmlns="http://www.w3.org/2000/svg" width="460" height="460">
<path d="M0 0 C-1.44 3.75 -3.14 7.28 -4.94 10.88 C-14.01 30.56 -13.3 54.49 -13.41 75.73 C-13.43 77.95 -13.45 80.16 -13.47 82.38 C-13.52 88.14 -13.56 93.9 -13.6 99.66 C-13.64 105.57 -13.69 111.47 -13.74 117.38 C-13.84 128.92 -13.92 140.46 -14 152 C-3.27 145.66 6.14 136.97 14.88 128.12 C19.91 123.08 19.91 123.08 22 122 C26.9 122.4 30.25 124.06 34.5 126.44 C52.15 135.77 72.75 141.05 92 146 C91.94 146.64 91.88 147.29 91.82 147.95 C91.64 149.89 91.46 151.82 91.29 153.76 C91.1 155.83 90.91 157.89 90.71 159.96 C90.12 166.54 89.9 173.08 89.88 179.69 C89.87 180.46 89.87 181.23 89.86 182.03 C89.88 187.73 90.35 193.33 91 199 C80.91 203.17 70.83 207.15 60.44 210.5 C44.14 214.86 44.14 214.86 30 223 C31.25 223.37 31.25 223.37 32.53 223.75 C35.7 224.68 38.88 225.63 42.05 226.57 C43.41 226.97 44.77 227.38 46.13 227.78 C60.03 231.88 73.46 236.31 86.31 243.12 C87.34 243.65 88.36 244.17 89.42 244.71 C90.39 245.22 91.36 245.73 92.36 246.26 C93.67 246.94 93.67 246.94 95 247.64 C97 249 97 249 98 252 C97.88 254.05 97.88 254.05 97.57 256.43 C96.9 262.35 96.86 268.2 96.87 274.15 C96.87 275.28 96.87 276.42 96.86 277.58 C96.86 279.97 96.87 282.35 96.87 284.74 C96.87 288.36 96.87 291.98 96.86 295.59 C96.86 297.92 96.87 300.26 96.87 302.59 C96.86 304.18 96.86 304.18 96.86 305.82 C96.88 312.92 97.31 319.93 98 327 C89.59 332.04 81.17 336.97 72.44 341.44 C60.08 347.83 45.74 356.2 36.49 366.72 C35 368 35 368 31 368 C30.74 362.89 31.45 358.59 32.68 353.64 C36.26 339.16 37.42 324.86 38 310 C38.04 309.12 38.07 308.25 38.11 307.35 C38.34 301.39 38.55 295.42 38.72 289.46 C38.78 287.45 38.85 285.44 38.91 283.43 C39.01 280.6 39.08 277.77 39.14 274.93 C39.19 273.65 39.19 273.65 39.24 272.33 C39.48 268.01 39.48 268.01 37.6 264.32 C35.8 262.84 34.11 261.97 32 261 C26.77 258.48 21.81 255.58 16.81 252.62 C9.76 248.48 2.66 244.78 -4.8 241.44 C-7.91 240.04 -10.95 238.53 -14 237 C-13.92 245.55 -13.82 254.09 -13.71 262.64 C-13.66 266.61 -13.62 270.58 -13.58 274.54 C-13.54 278.38 -13.49 282.22 -13.44 286.06 C-13.42 287.52 -13.41 288.97 -13.4 290.43 C-13.3 302.49 -13.15 313.81 -6 324 C-5.45 324.43 -4.9 324.87 -4.34 325.31 C-3 327 -3 327 -3 334 C-28.41 334 -53.82 334 -80 334 C-80 327 -80 327 -78.79 325.07 C-78.26 324.57 -77.73 324.07 -77.19 323.56 C-72.56 319.18 -70.87 313.43 -70.63 307.21 C-70.61 305.41 -70.61 303.6 -70.63 301.79 C-70.62 300.79 -70.62 299.79 -70.61 298.76 C-70.6 295.41 -70.62 292.07 -70.63 288.72 C-70.63 286.32 -70.62 283.92 -70.62 281.51 C-70.61 275.66 -70.61 269.82 -70.63 263.97 C-70.64 257.13 -70.64 250.3 -70.64 243.47 C-70.63 231.25 -70.64 219.03 -70.66 206.81 C-70.68 195.01 -70.69 183.21 -70.68 171.4 C-70.68 158.52 -70.68 145.63 -70.69 132.75 C-70.69 131.37 -70.69 129.98 -70.69 128.6 C-70.69 127.92 -70.69 127.24 -70.7 126.54 C-70.7 121.8 -70.7 117.07 -70.7 112.33 C-70.69 105.91 -70.7 99.49 -70.72 93.07 C-70.72 90.73 -70.72 88.4 -70.72 86.06 C-70.71 74.17 -70.97 62.35 -71.86 50.49 C-71.94 49.47 -72.01 48.45 -72.09 47.4 C-72.88 38.01 -74.7 28.43 -79.66 20.27 C-81 18 -81 18 -81 15 C-80.45 15.07 -79.9 15.14 -79.34 15.22 C-53.53 18.24 -29.4 12.85 -6.39 1.03 C-4 0 -4 0 0 0 Z M-14 166 C-14 182.83 -14 199.66 -14 217 C-8.05 215.22 -2.75 213.61 2.88 211.25 C8.77 208.82 14.72 206.68 20.75 204.62 C27.81 202.19 34.78 199.59 41.69 196.75 C42.51 196.42 43.33 196.09 44.17 195.75 C46.15 194.92 48.08 193.97 50 193 C51.04 189.89 51.03 188.16 50.75 184.94 C50.68 184.06 50.62 183.18 50.55 182.28 C50.18 179.63 50.18 179.63 47 178 C45.1 177.4 45.1 177.4 43 176.99 C42.2 176.82 41.39 176.65 40.57 176.48 C39.7 176.3 38.83 176.12 37.93 175.94 C37.03 175.75 36.12 175.56 35.18 175.37 C33.25 174.96 31.32 174.56 29.39 174.17 C26.5 173.58 23.61 172.97 20.72 172.37 C18.83 171.97 16.95 171.58 15.06 171.19 C14.22 171.02 13.38 170.84 12.52 170.66 C3.71 168.86 -5.11 167.48 -14 166 Z " fill="#53A245" transform="translate(220,50)"/>
</svg>
